<svg xmlns="http://www.w3.org/2000/svg" width="1000" height="520" viewBox="0 0 1000 520" role="img" aria-label="trustworthiness-loop.svg"><defs><style>.bg{fill:#0A0A0F}.panel{fill:#12141C;stroke:#00D4FF;stroke-width:1.5}.line{stroke:#00D4FF;stroke-width:2;fill:none;marker-end:url(#a)}.good{stroke:#00E676}.warn{stroke:#FFB300}.bad{stroke:#FF3D00}.t{fill:#E6F7FF;font:600 16px Arial}.s{fill:#A9B7C6;font:12px Arial}</style><marker id="a" markerWidth="10" markerHeight="10" refX="8" refY="3" orient="auto"><path d="M0,0 L0,6 L9,3 z" fill="#00D4FF"/></marker></defs><rect class="bg" width="1000" height="520"/><rect class="panel" x="420" y="30" width="180" height="70" rx="6"/><text class="t" x="436" y="58">Identity</text><text class="s" x="436" y="80">subject</text><rect class="panel" x="680" y="120" width="180" height="70" rx="6"/><text class="t" x="696" y="148">Trust Evidence</text><text class="s" x="696" y="170">issuer signals</text><rect class="panel" x="680" y="310" width="180" height="70" rx="6"/><text class="t" x="696" y="338">Attestation</text><text class="s" x="696" y="360">fresh proof</text><rect class="panel" x="420" y="410" width="180" height="70" rx="6"/><text class="t" x="436" y="438">TrustDecay</text><text class="s" x="436" y="460">evaluate</text><rect class="panel" x="140" y="310" width="180" height="70" rx="6"/><text class="t" x="156" y="338">TrustProof</text><text class="s" x="156" y="360">result</text><rect class="panel" x="140" y="120" width="180" height="70" rx="6"/><text class="t" x="156" y="148">Authority</text><text class="s" x="156" y="170">downstream</text><path class="line" d="M600 65 C700 65 730 90 770 120"/><path class="line" d="M770 190 V310"/><path class="line" d="M680 350 C610 420 560 445 600 445"/><path class="line" d="M420 445 C300 445 250 390 230 380"/><path class="line" d="M230 310 V190"/><path class="line" d="M320 155 C390 95 420 65 420 65"/></svg>
