<svg xmlns="http://www.w3.org/2000/svg" width="1120" height="360" viewBox="0 0 1120 360" role="img" aria-label="ttp-hero.svg"><defs><style>.bg{fill:#0A0A0F}.panel{fill:#12141C;stroke:#00D4FF;stroke-width:1.5}.line{stroke:#00D4FF;stroke-width:2;fill:none;marker-end:url(#a)}.good{stroke:#00E676}.warn{stroke:#FFB300}.bad{stroke:#FF3D00}.t{fill:#E6F7FF;font:600 16px Arial}.s{fill:#A9B7C6;font:12px Arial}</style><marker id="a" markerWidth="10" markerHeight="10" refX="8" refY="3" orient="auto"><path d="M0,0 L0,6 L9,3 z" fill="#00D4FF"/></marker></defs><rect class="bg" width="1120" height="360"/><rect class="panel" x="40" y="120" width="190" height="84" rx="6"/><text class="t" x="56" y="148">Actors</text><text class="s" x="56" y="170">Human Agent API CI</text><rect class="panel" x="270" y="120" width="170" height="84" rx="6"/><text class="t" x="286" y="148">Trust Evidence</text><text class="s" x="286" y="170">claims attestations</text><rect class="panel" x="480" y="120" width="170" height="84" rx="6"/><text class="t" x="496" y="148">TTP Trust Proof</text><text class="s" x="496" y="170">establish</text><rect class="panel" x="690" y="120" width="190" height="84" rx="6"/><text class="t" x="706" y="148">Downstream Authority</text><text class="s" x="706" y="170">RAP gate</text><rect class="panel" x="920" y="120" width="160" height="84" rx="6"/><text class="t" x="936" y="148">Receipt</text><text class="s" x="936" y="170">evidence chain</text><path class="line" d="M230 162 H270"/><path class="line" d="M440 162 H480"/><path class="line" d="M650 162 H690"/><path class="line" d="M880 162 H920"/></svg>
